<?xml version="1.0" encoding="utf-8"?>
<!-- Generator: Adobe Illustrator 18.0.0, SVG Export Plug-In . SVG Version: 6.00 Build 0)  -->
<!DOCTYPE svg PUBLIC "-//W3C//DTD SVG 1.1//EN" "http://www.w3.org/Graphics/SVG/1.1/DTD/svg11.dtd">
<svg version="1.1" id="Layer_1" xmlns="http://www.w3.org/2000/svg" xmlns:xlink="http://www.w3.org/1999/xlink" x="0px" y="0px"
	 viewBox="0 0 298.2 278" enable-background="new 0 0 298.2 278" xml:space="preserve">
<path fill="none" stroke="#FFFFFF" stroke-width="1.98" stroke-linecap="round" stroke-linejoin="round" stroke-miterlimit="10" d="
	M295.6,190.4c0.6-11.1-4.9-18.8-4.9-18.8l-43.2-33.2c2.1-0.6,3.7-2.5,3.7-4.8v-15c0-2.7-2.2-5-5-5h-5c-2.7,0-5,2.2-5,5v11.1
	l-28-21.6c1.1-0.9,1.9-2.3,1.9-3.9v-15c0-2.7-2.2-5-5-5h-5c-2.7,0-5,2.2-5,5v8.7l-21.6-16.6c-5-4.2-10.4-12.1-10.4-12.1V32
	c0-19.9-11.7-28.9-11.7-28.9s-2.4-1.9-4.8,0.2C145.2,4.6,135,13.7,135,32.4v37.4c0,0-5.4,7.9-10.4,12.1L103,98.5v-8.7
	c0-2.7-2.2-5-5-5h-5c-2.7,0-5,2.2-5,5v15c0,1.6,0.7,2.9,1.9,3.9l-28,21.6v-11.1c0-2.7-2.2-5-5-5h-5c-2.7,0-5,2.2-5,5v15
	c0,2.3,1.6,4.2,3.7,4.8L7.5,172.1c0,0-5.6,7.6-4.9,18.8c0.1,1.5,1.7,2.5,3.1,1.7c12.6-6.9,67-35.7,119.8-48.8c1.7-0.4,3.5,0.4,4.3,2
	l2.2,4.5c1.8,3.7,2.7,7.7,2.7,11.7c-0.1,12.7,0.1,42.4,3,60l-38.2,29.9c0,0-7.5,2.6-8.2,21.6c-0.1,1.5,1.5,2.6,2.9,2l49-21.9
	c0,0,4.4,15.2,5.8,16.6c0,0,0.3,0.6,0.6,0c1.5-1.9,5.8-17,5.8-17l49,21.9c1.4,0.6,3-0.4,2.9-2c-0.8-19-8.2-21.6-8.2-21.6l-38.2-29.9
	c2.9-17.6,3-47.3,3-60c0-4.1,0.9-8.1,2.7-11.7l2.2-4.5c0.8-1.6,2.6-2.5,4.3-2c52.7,13.2,107.1,41.9,119.8,48.8
	C293.9,192.9,295.6,192,295.6,190.4z"/>
</svg>
