<?xml version="1.0" encoding="utf-8"?>
<!-- Generator: Adobe Illustrator 18.0.0, SVG Export Plug-In . SVG Version: 6.00 Build 0)  -->
<!DOCTYPE svg PUBLIC "-//W3C//DTD SVG 1.1//EN" "http://www.w3.org/Graphics/SVG/1.1/DTD/svg11.dtd">
<svg version="1.1" id="Layer_1" xmlns="http://www.w3.org/2000/svg" xmlns:xlink="http://www.w3.org/1999/xlink" x="0px" y="0px"
	 viewBox="0 0 298.2 278" enable-background="new 0 0 298.2 278" xml:space="preserve">
<path fill="none" stroke="#FFFFFF" stroke-width="1.98" stroke-linecap="round" stroke-linejoin="round" stroke-miterlimit="10" d="
	M151,8.3c1.1,1.2,8.6,10.1,9.2,26.1l1.5,50.9c0,0,0,6.3,5.6,10.1l21.2,15.8V90.9c0-2.7,1.4-5.2,4-5.1h2.8c3.1,0,4.2,2.4,4.2,5.1
	v22.4c-0.1,4.5-1,4-1.8,4.9l21.6,14.9l0.2-19.5c0-2.7,1.7-4.9,3.7-4.9h3.7c2,0,3.7,2.2,3.7,4.9l0.1,20.9c0,2.3-1.2,4.2-2.7,4.7
	l29.9,23.7c0,0,1.9,1.6,1.4,12.7c-0.1,1.5-1.2,2.3-2.3,1.7c-11.3-5.7-19-9.5-30.7-15c-0.4-0.2-0.8,0-1,0.4l-0.6,2.3l-0.9-3.6
	c-0.1-0.2-0.2-0.4-0.4-0.4c-3.6-1.7-7.7-3.6-12.3-5.7c-0.4-0.2-0.8,0-1,0.4l-0.7,2.6l-1-4c-0.1-0.2-0.2-0.4-0.4-0.4
	c-4.1-1.9-8.7-4-13.8-6.4c-0.4-0.2-0.8,0-0.9,0.4l-0.8,2.7l-1-4.1c-0.1-0.2-0.2-0.4-0.4-0.4c-1.2-0.5-2.3-1.1-3.6-1.7l-24.4-0.7
	c-1.1,1.5-0.7,12-0.7,16c0.1,12.6-2.3,50.7-4.4,68.1l32.6,28.4c0,0,2.1,5.1,2.6,12.5c0.1,1.5-1.1,2.6-2.1,1.9l-37.3-17.9
	c0,0-3.2,15-4.3,16.4v0c-0.1,0.2-0.2,0.3-0.2,0.3c0,0,0,0,0,0c0,0,0,0,0,0c-0.1,0-0.1-0.1-0.2-0.3v0c-1.1-1.4-4.3-16.4-4.3-16.4
	l-37.3,17.9c-1,0.6-2.2-0.4-2.1-1.9c0.5-7.4,2.6-12.5,2.6-12.5l32.6-28.4c-2.1-17.4-4.5-55.5-4.4-68.1c0-4,0.3-14.4-0.7-16
	l-24.4,0.7c-1.2,0.6-2.4,1.1-3.6,1.7c-0.2,0.1-0.3,0.3-0.4,0.4l-1,4.1l-0.8-2.7c-0.1-0.4-0.6-0.6-0.9-0.4c-5.1,2.4-9.7,4.5-13.8,6.4
	c-0.2,0.1-0.3,0.3-0.4,0.4l-1,4l-0.7-2.6c-0.1-0.4-0.6-0.6-1-0.4c-4.6,2.2-8.7,4-12.3,5.7c-0.2,0.1-0.3,0.2-0.4,0.4l-0.9,3.6
	l-0.6-2.3c-0.1-0.4-0.6-0.6-1-0.4c-11.7,5.5-19.4,9.3-30.7,15c-1.1,0.6-2.2-0.2-2.3-1.7c-0.5-11,1.4-12.7,1.4-12.7l29.9-23.7
	c-1.6-0.6-2.7-2.5-2.7-4.7l0.1-20.9c0-2.7,1.7-4.9,3.7-4.9h3.7c2,0,3.7,2.2,3.7,4.9l0.2,19.5l21.6-14.9c-0.8-0.9-1.7-0.5-1.8-4.9
	V90.9c0-2.7,1.1-5.1,4.2-5.1h2.8c2.6-0.1,4,2.4,4,5.1v20.3l21.2-15.8c5.7-3.8,5.6-10.1,5.6-10.1l1.5-50.9
	c0.6-16.1,8.1-24.9,9.2-26.1c0,0,0.9-1,1.9-1C150.1,7.3,151,8.3,151,8.3z"/>
</svg>
